{
	"asset":{
		"generator":"Khronos glTF Blender I/O v5.2.39",
		"version":"2.0"
	},
	"extensionsUsed":[
		"KHR_materials_transmission",
		"KHR_materials_specular",
		"KHR_materials_sheen"
	],
	"scene":0,
	"scenes":[
		{
			"name":"Scene",
			"nodes":[
				24
			]
		}
	],
	"nodes":[
		{
			"name":"Foot IKBackLeft",
			"rotation":[
				-0.00045855954522266984,
				-0.025455323979258537,
				0.015802456066012383,
				0.999550998210907
			],
			"scale":[
				1,
				0.9999998211860657,
				0.9999998807907104
			],
			"translation":[
				0.017261704429984093,
				0.6097636818885803,
				-0.0007330253720283508
			]
		},
		{
			"children":[
				0
			],
			"name":"leg3BackLeft",
			"rotation":[
				-0.012554440647363663,
				-0.005576570518314838,
				0.0031534212175756693,
				0.9999006986618042
			],
			"translation":[
				-7.113734682206996e-06,
				0.6133314371109009,
				-0.0020020960364490747
			]
		},
		{
			"children":[
				1
			],
			"name":"leg2BackLeft",
			"rotation":[
				0.0005598090938292444,
				-0.004429069813340902,
				-0.003191339084878564,
				0.9999849200248718
			],
			"scale":[
				1.0000001192092896,
				1,
				1
			],
			"translation":[
				5.037541995989159e-06,
				0.6240430474281311,
				-0.0009677433408796787
			]
		},
		{
			"children":[
				2
			],
			"name":"leg1BackLeft",
			"rotation":[
				0.01337403804063797,
				0.019813774153590202,
				-0.01140421349555254,
				0.999649167060852
			],
			"translation":[
				1.5340629033744335e-07,
				0.15336354076862335,
				2.561137080192566e-09
			]
		},
		{
			"children":[
				3
			],
			"name":"leg0BackLeft",
			"rotation":[
				-0.25677207112312317,
				0.6426991820335388,
				0.6684262752532959,
				0.272419273853302
			],
			"translation":[
				-0.2375207543373108,
				-0.07095452398061752,
				0.2277103215456009
			]
		},
		{
			"name":"Foot IKBackRight",
			"rotation":[
				0.0017026327550411224,
				0.02458677627146244,
				-0.03658086434006691,
				0.9990267753601074
			],
			"scale":[
				1,
				0.9999999403953552,
				1
			],
			"translation":[
				0.02490091510117054,
				0.6060160994529724,
				0.000165846839081496
			]
		},
		{
			"children":[
				5
			],
			"name":"leg3BackRight",
			"rotation":[
				-0.007248855661600828,
				0.005876320414245129,
				0.002452549058943987,
				0.9999534487724304
			],
			"scale":[
				0.9999998807907104,
				1,
				1
			],
			"translation":[
				7.066450962156523e-06,
				0.5994048118591309,
				-0.0020019691437482834
			]
		},
		{
			"children":[
				6
			],
			"name":"leg2BackRight",
			"rotation":[
				0.003942582290619612,
				0.004416241776198149,
				-0.002901641186326742,
				0.999978244304657
			],
			"scale":[
				1.0000001192092896,
				0.9999998211860657,
				1
			],
			"translation":[
				0.0003964971692766994,
				0.6379728317260742,
				-0.0010289062047377229
			]
		},
		{
			"children":[
				7
			],
			"name":"leg1BackRight",
			"rotation":[
				0.03573988005518913,
				-0.018915701657533646,
				0.009634030982851982,
				0.9991356730461121
			],
			"scale":[
				1.0000001192092896,
				1,
				1
			],
			"translation":[
				-0.007496789563447237,
				0.15558922290802002,
				-0.0020178952254354954
			]
		},
		{
			"children":[
				8
			],
			"name":"leg0BackRight",
			"rotation":[
				-0.26254433393478394,
				-0.6281927227973938,
				-0.6828384399414062,
				0.26490774750709534
			],
			"translation":[
				0.23752076923847198,
				-0.07095453888177872,
				0.22771033644676208
			]
		},
		{
			"name":"Foot IKFrontLeft",
			"rotation":[
				-0.05947119742631912,
				-0.045818813145160675,
				-0.015886634588241577,
				0.9970513582229614
			],
			"translation":[
				0.011403094045817852,
				0.6008764505386353,
				-0.00010902649955824018
			]
		},
		{
			"children":[
				10
			],
			"name":"leg3FrontLeft",
			"rotation":[
				0.008131827227771282,
				-0.00922218058258295,
				-0.019277118146419525,
				0.9997385740280151
			],
			"scale":[
				0.9999998807907104,
				1,
				1
			],
			"translation":[
				0.0009304293198511004,
				0.6055142283439636,
				-0.0015569959068670869
			]
		},
		{
			"children":[
				11
			],
			"name":"leg2FrontLeft",
			"rotation":[
				-0.008095505647361279,
				-0.008312328718602657,
				-0.002851927885785699,
				0.9999285936355591
			],
			"scale":[
				0.9999998807907104,
				0.9999999403953552,
				0.9999998807907104
			],
			"translation":[
				0.005007700528949499,
				0.640468955039978,
				-0.0009663975797593594
			]
		},
		{
			"children":[
				12
			],
			"name":"leg1FrontLeft",
			"rotation":[
				0.01504447404295206,
				0.0373346246778965,
				-0.005545520689338446,
				0.999174177646637
			],
			"scale":[
				0.9999998807907104,
				1,
				1
			],
			"translation":[
				1.1717202141880989e-07,
				0.15371397137641907,
				1.862645149230957e-09
			]
		},
		{
			"children":[
				13
			],
			"name":"leg0FrontLeft",
			"rotation":[
				-0.6499733924865723,
				0.25153693556785583,
				0.3026341199874878,
				0.6501356363296509
			],
			"scale":[
				1.0000001192092896,
				0.9999999403953552,
				0.9999999403953552
			],
			"translation":[
				-0.23045261204242706,
				-0.0709545835852623,
				-0.2348610758781433
			]
		},
		{
			"name":"Foot IKFrontRight",
			"rotation":[
				0.00600457563996315,
				0.055874377489089966,
				0.014750163070857525,
				0.9983108043670654
			],
			"scale":[
				0.9999998211860657,
				1,
				0.9999998807907104
			],
			"translation":[
				0.004866635426878929,
				0.6095691323280334,
				-0.0005877141375094652
			]
		},
		{
			"children":[
				15
			],
			"name":"leg3FrontRight",
			"rotation":[
				-0.016330048441886902,
				0.010826236568391323,
				-0.0115165114402771,
				0.9997417330741882
			],
			"translation":[
				0.020179353654384613,
				0.5979570746421814,
				-0.0017845816910266876
			]
		},
		{
			"children":[
				16
			],
			"name":"leg2FrontRight",
			"rotation":[
				0.010198766365647316,
				0.00847355555742979,
				0.003354129381477833,
				0.9999064803123474
			],
			"scale":[
				0.9999999403953552,
				0.9999998807907104,
				1.0000001192092896
			],
			"translation":[
				0.0005695332074537873,
				0.6388481855392456,
				-8.86525958776474e-05
			]
		},
		{
			"children":[
				17
			],
			"name":"leg1FrontRight",
			"rotation":[
				-0.03302425891160965,
				-0.03332488611340523,
				-0.012628595344722271,
				0.9988189935684204
			],
			"scale":[
				0.9999999403953552,
				0.9999998807907104,
				0.9999998211860657
			],
			"translation":[
				-0.0005437738727778196,
				0.15524977445602417,
				0.0012179156765341759
			]
		},
		{
			"children":[
				18
			],
			"name":"leg0FrontRight",
			"rotation":[
				-0.6330181360244751,
				-0.2492811381816864,
				-0.2750203013420105,
				0.6793459057807922
			],
			"translation":[
				0.23045264184474945,
				-0.0709545686841011,
				-0.23486104607582092
			]
		},
		{
			"mesh":1,
			"name":"Body",
			"rotation":[
				-6.717942824252532e-08,
				-5.329069671167804e-15,
				-3.4410703384786364e-22,
				1
			],
			"scale":[
				1,
				1.000000238418579,
				1.000000238418579
			],
			"translation":[
				-3.552714949349922e-15,
				-0.22691994905471802,
				-4.6629367034256575e-15
			]
		},
		{
			"children":[
				4,
				9,
				14,
				19,
				20
			],
			"name":"Body",
			"rotation":[
				-8.557137221032463e-09,
				2.4203242077192044e-08,
				-4.1422092230574466e-16,
				1
			],
			"translation":[
				0,
				7.450580596923828e-09,
				0
			]
		},
		{
			"mesh":0,
			"name":"Eye",
			"skin":0
		},
		{
			"mesh":2,
			"name":"Leg",
			"skin":0
		},
		{
			"children":[
				22,
				23,
				21
			],
			"name":"Armature",
			"scale":[
				3.0688400268554688,
				3.0688400268554688,
				3.0688400268554688
			],
			"translation":[
				0,
				0.255064994096756,
				0
			]
		}
	],
	"materials":[
		{
			"doubleSided":true,
			"name":"Body",
			"pbrMetallicRoughness":{
				"baseColorFactor":[
					0,
					0.8000156879425049,
					0.7373815774917603,
					1
				]
			}
		},
		{
			"doubleSided":true,
			"extensions":{
				"KHR_materials_transmission":{
					"transmissionFactor":0.8999999761581421
				},
				"KHR_materials_specular":{
					"specularColorFactor":[
						2.0,
						0.0,
						1.562178373336792
					]
				},
				"KHR_materials_sheen":{
					"sheenColorFactor":[
						0.017968611791729927,
						1.0,
						0.0
					],
					"sheenRoughnessFactor":0.23076921701431274
				}
			},
			"name":"Glass",
			"pbrMetallicRoughness":{
				"baseColorFactor":[
					0,
					0.004767281003296375,
					0.8000074625015259,
					1
				],
				"roughnessFactor":0
			}
		},
		{
			"doubleSided":true,
			"name":"Body Inside",
			"pbrMetallicRoughness":{
				"baseColorFactor":[
					0.0007689450867474079,
					0.7003965377807617,
					0.8000074625015259,
					1
				],
				"roughnessFactor":0.20000000298023224
			}
		}
	],
	"meshes":[
		{
			"name":"Sphere",
			"primitives":[
				{
					"attributes":{
						"POSITION":0,
						"NORMAL":1,
						"TEXCOORD_0":2,
						"JOINTS_0":3,
						"WEIGHTS_0":4
					},
					"indices":5
				}
			]
		},
		{
			"name":"Cube.001",
			"primitives":[
				{
					"attributes":{
						"POSITION":7,
						"NORMAL":8,
						"TEXCOORD_0":9
					},
					"indices":10,
					"material":0
				},
				{
					"attributes":{
						"POSITION":11,
						"NORMAL":12,
						"TEXCOORD_0":13
					},
					"indices":14,
					"material":1
				},
				{
					"attributes":{
						"POSITION":15,
						"NORMAL":16,
						"TEXCOORD_0":17
					},
					"indices":18,
					"material":2
				}
			]
		},
		{
			"name":"Cylinder.002",
			"primitives":[
				{
					"attributes":{
						"POSITION":19,
						"NORMAL":20,
						"TEXCOORD_0":21,
						"JOINTS_0":22,
						"WEIGHTS_0":23
					},
					"indices":24
				}
			]
		}
	],
	"skins":[
		{
			"inverseBindMatrices":6,
			"joints":[
				21,
				4,
				3,
				2,
				1,
				0,
				9,
				8,
				7,
				6,
				5,
				14,
				13,
				12,
				11,
				10,
				19,
				18,
				17,
				16,
				15
			],
			"name":"Armature"
		}
	],
	"accessors":[
		{
			"bufferView":0,
			"componentType":5126,
			"count":115,
			"max":[
				0.3197292387485504,
				1.033450722694397,
				0.3197292387485504
			],
			"min":[
				-0.3197292387485504,
				0.3939923942089081,
				-0.319729208946228
			],
			"type":"VEC3"
		},
		{
			"bufferView":1,
			"componentType":5126,
			"count":115,
			"type":"VEC3"
		},
		{
			"bufferView":2,
			"componentType":5126,
			"count":115,
			"type":"VEC2"
		},
		{
			"bufferView":3,
			"componentType":5121,
			"count":115,
			"type":"VEC4"
		},
		{
			"bufferView":4,
			"componentType":5126,
			"count":115,
			"type":"VEC4"
		},
		{
			"bufferView":5,
			"componentType":5123,
			"count":504,
			"type":"SCALAR"
		},
		{
			"bufferView":6,
			"componentType":5126,
			"count":21,
			"type":"MAT4"
		},
		{
			"bufferView":7,
			"componentType":5126,
			"count":121,
			"max":[
				0.32585594058036804,
				0.142118901014328,
				0.3258560597896576
			],
			"min":[
				-0.32585611939430237,
				-0.190716952085495,
				-0.32585597038269043
			],
			"type":"VEC3"
		},
		{
			"bufferView":8,
			"componentType":5126,
			"count":121,
			"type":"VEC3"
		},
		{
			"bufferView":9,
			"componentType":5126,
			"count":121,
			"type":"VEC2"
		},
		{
			"bufferView":10,
			"componentType":5123,
			"count":324,
			"type":"SCALAR"
		},
		{
			"bufferView":11,
			"componentType":5126,
			"count":62,
			"max":[
				0.30105161666870117,
				0.6166585087776184,
				0.30105164647102356
			],
			"min":[
				-0.3010518252849579,
				0.14211881160736084,
				-0.30105164647102356
			],
			"type":"VEC3"
		},
		{
			"bufferView":12,
			"componentType":5126,
			"count":62,
			"type":"VEC3"
		},
		{
			"bufferView":13,
			"componentType":5126,
			"count":62,
			"type":"VEC2"
		},
		{
			"bufferView":14,
			"componentType":5123,
			"count":252,
			"type":"SCALAR"
		},
		{
			"bufferView":15,
			"componentType":5126,
			"count":60,
			"max":[
				0.30105161666870117,
				0.142118901014328,
				0.30105164647102356
			],
			"min":[
				-0.3010518252849579,
				0.06547549366950989,
				-0.30105164647102356
			],
			"type":"VEC3"
		},
		{
			"bufferView":16,
			"componentType":5126,
			"count":60,
			"type":"VEC3"
		},
		{
			"bufferView":17,
			"componentType":5126,
			"count":60,
			"type":"VEC2"
		},
		{
			"bufferView":18,
			"componentType":5123,
			"count":174,
			"type":"SCALAR"
		},
		{
			"bufferView":19,
			"componentType":5126,
			"count":1648,
			"max":[
				5.102153778076172,
				0.5381828546524048,
				5.093738555908203
			],
			"min":[
				-5.123843669891357,
				-0.8083548545837402,
				-5.115683078765869
			],
			"type":"VEC3"
		},
		{
			"bufferView":20,
			"componentType":5126,
			"count":1648,
			"type":"VEC3"
		},
		{
			"bufferView":21,
			"componentType":5126,
			"count":1648,
			"type":"VEC2"
		},
		{
			"bufferView":22,
			"componentType":5121,
			"count":1648,
			"type":"VEC4"
		},
		{
			"bufferView":23,
			"componentType":5126,
			"count":1648,
			"type":"VEC4"
		},
		{
			"bufferView":24,
			"componentType":5123,
			"count":7752,
			"type":"SCALAR"
		}
	],
	"bufferViews":[
		{
			"buffer":0,
			"byteLength":1380,
			"byteOffset":0,
			"target":34962
		},
		{
			"buffer":0,
			"byteLength":1380,
			"byteOffset":1380,
			"target":34962
		},
		{
			"buffer":0,
			"byteLength":920,
			"byteOffset":2760,
			"target":34962
		},
		{
			"buffer":0,
			"byteLength":460,
			"byteOffset":3680,
			"target":34962
		},
		{
			"buffer":0,
			"byteLength":1840,
			"byteOffset":4140,
			"target":34962
		},
		{
			"buffer":0,
			"byteLength":1008,
			"byteOffset":5980,
			"target":34963
		},
		{
			"buffer":0,
			"byteLength":1344,
			"byteOffset":6988
		},
		{
			"buffer":0,
			"byteLength":1452,
			"byteOffset":8332,
			"target":34962
		},
		{
			"buffer":0,
			"byteLength":1452,
			"byteOffset":9784,
			"target":34962
		},
		{
			"buffer":0,
			"byteLength":968,
			"byteOffset":11236,
			"target":34962
		},
		{
			"buffer":0,
			"byteLength":648,
			"byteOffset":12204,
			"target":34963
		},
		{
			"buffer":0,
			"byteLength":744,
			"byteOffset":12852,
			"target":34962
		},
		{
			"buffer":0,
			"byteLength":744,
			"byteOffset":13596,
			"target":34962
		},
		{
			"buffer":0,
			"byteLength":496,
			"byteOffset":14340,
			"target":34962
		},
		{
			"buffer":0,
			"byteLength":504,
			"byteOffset":14836,
			"target":34963
		},
		{
			"buffer":0,
			"byteLength":720,
			"byteOffset":15340,
			"target":34962
		},
		{
			"buffer":0,
			"byteLength":720,
			"byteOffset":16060,
			"target":34962
		},
		{
			"buffer":0,
			"byteLength":480,
			"byteOffset":16780,
			"target":34962
		},
		{
			"buffer":0,
			"byteLength":348,
			"byteOffset":17260,
			"target":34963
		},
		{
			"buffer":0,
			"byteLength":19776,
			"byteOffset":17608,
			"target":34962
		},
		{
			"buffer":0,
			"byteLength":19776,
			"byteOffset":37384,
			"target":34962
		},
		{
			"buffer":0,
			"byteLength":13184,
			"byteOffset":57160,
			"target":34962
		},
		{
			"buffer":0,
			"byteLength":6592,
			"byteOffset":70344,
			"target":34962
		},
		{
			"buffer":0,
			"byteLength":26368,
			"byteOffset":76936,
			"target":34962
		},
		{
			"buffer":0,
			"byteLength":15504,
			"byteOffset":103304,
			"target":34963
		}
	],
	"buffers":[
		{
			"byteLength":118808,
			"uri":"spider_bot_model.bin"
		}
	]
}
